<svg clip-rule="evenodd" fill-rule="evenodd" stroke-linejoin="round" stroke-miterlimit="2" viewBox="0 0 256 256" xmlns="http://www.w3.org/2000/svg"><path d="m0 0h256v256h-256z" fill="none"/><path d="m81.201 42.509 44.005-29.655c1.61-1.085 3.702-1.14 5.366-.141l43.297 25.977c.952.27 1.779.812 2.402 1.529.93.804 1.539 1.93 1.692 3.17.144 1.175-.134 2.351-.765 3.327l-10.514 103.196 6.282-13.519c.783-1.685 2.387-2.729 4.116-2.876l40.849-29.047c1.038-2.344 3.719-3.546 6.189-2.7.866.296 1.598.808 2.157 1.454.696.603 1.221 1.396 1.5 2.299l17 55c.756 2.445-.456 5.065-2.807 6.073l-.041.017-50.48 67.887h6.051c2.76 0 5 2.24 5 5s-2.24 5-5 5h-29.942c-.042.001-.085.001-.128 0h-137.93c-2.76 0-5-2.24-5-5s2.24-5 5-5h7.535l-25.217-67.244c-.193-.521-.303-1.069-.317-1.624-.017-.635.09-1.272.311-1.868.244-.659.627-1.264 1.119-1.766.353-.361.76-.664 1.204-.904l.015-.008 32.351-52.686c.049-2.583 2.083-4.737 4.705-4.891 1.608-.095 3.084.583 4.067 1.711l27.957 24.145-6.713-81.454c-.227-2.751 1.822-5.167 4.572-5.394.038-.003.075-.006.112-.008zm28.717 37.491 11.375 154.5h5.382l9.478-154.5zm-62.203 154.5h23.388l-19.29-53.486-27.012-7.619zm13.991-55.53 20.027 55.53h9.767v-77.875zm26.044-116.51 6.233 75.629c.016.194.021.386.015.575l5.27 4.552c.184.159.356.33.513.512 1.053.917 1.719 2.267 1.719 3.772v87h9.766l-11.639-158.097zm112.949 121.823-25.109 50.217h3.397l44.651-60.048zm-62.292 50.217h26.003l27.643-55.287-14.318-29.352zm27.581-176.417-19.679 19.679-8.199 133.646 15.989-34.411c-.098-.483-.126-.988-.073-1.504zm56.45 64.03-16.847 49.194 28.303-12.13zm-197.718 40.869 25.398 7.164-2.605-44.283zm32.47-42.893 2.804 47.665 28.039-21.028zm127.162 20.529 12.443 25.508 15.554-45.416zm-44.074-70.967 24.658-24.658-36.78-22.069-38.72 26.094 17.873 20.982h32.011c.304-.148.625-.265.958-.349z" fill="#360073"/></svg>