<svg clip-rule="evenodd" fill-rule="evenodd" stroke-linejoin="round" stroke-miterlimit="2" viewBox="0 0 256 256" xmlns="http://www.w3.org/2000/svg"><path d="m0 0h256v256h-256z" fill="none"/><path d="m33.93 36.331c.216-.028.436-.043.657-.043h184.422c.103 0 .205.003.307.009 1.342-.077 2.712.384 3.756 1.39.998.961 1.51 2.239 1.53 3.525l19.837 38.257c.402.776.585 1.624.558 2.463.002.049.003.099.003.149 0 1.689-.84 3.183-2.124 4.089l-111.436 138.181c-1.144 1.419-2.928 2.065-4.642 1.804-1.714.261-3.498-.385-4.642-1.804l-112.452-139.441c-1.246-1.545-1.46-3.679-.547-5.441l20.877-40.262c.253-.555.613-1.072 1.079-1.52.801-.771 1.793-1.222 2.817-1.356zm139.632 50.75h-93.529l46.765 122.109zm55.733 0h-45.025l-40.717 106.32zm-159.97 0h-45.024l85.742 106.319zm-47.665-10h40.447l-26.291-27.302zm64.211 0h81.854l-40.927-27.285zm106.206 0h39.859l-13.95-26.905zm-52.514-30.793 41.586 27.724 26.698-27.724zm-93.226 0 26.468 27.485 41.227-27.485z" fill="#360073"/></svg>