<svg clip-rule="evenodd" fill-rule="evenodd" stroke-linejoin="round" stroke-miterlimit="2" viewBox="0 0 256 256" xmlns="http://www.w3.org/2000/svg"><path d="m0 0h256v256h-256z" fill="none"/><path d="m246 128c0-65.126-52.874-118-118-118s-118 52.874-118 118 52.874 118 118 118 118-52.874 118-118zm-100.243 54.175c-5.592 1.834-11.56 2.825-17.757 2.825-5.726 0-11.255-.846-16.468-2.419l-19.302 47.345c11.195 3.934 23.235 6.074 35.77 6.074 13.209 0 25.867-2.376 37.573-6.726zm-67.989-27.228-47.126 19.828c10.9 22.63 29.465 40.888 52.318 51.399l19.291-47.316c-10.4-5.282-18.967-13.658-24.483-23.911zm101.09-1.198c-5.282 10.4-13.658 18.967-23.911 24.483l19.828 47.126c22.63-10.9 40.888-29.465 51.4-52.318zm-3.858-25.749c0 25.94-21.06 47-47 47s-47-21.06-47-47 21.06-47 47-47 47 21.06 47 47zm-148.925-35.771c-3.935 11.196-6.075 23.236-6.075 35.771 0 13.209 2.376 25.867 6.726 37.573l47.099-19.816c-1.834-5.592-2.825-11.56-2.825-17.757 0-5.726.846-11.255 2.419-16.468zm203.199-1.803-47.099 19.816c1.833 5.587 2.825 11.557 2.825 17.758 0 5.726-.846 11.255-2.419 16.468l47.345 19.302c3.934-11.195 6.074-23.235 6.074-35.77 0-13.209-2.376-25.867-6.726-37.574zm-129.274 37.574c0-15.464 12.536-28 28-28 2.76 0 5-2.24 5-5s-2.24-5-5-5c-20.988 0-38 17.012-38 38 0 2.76 2.24 5 5 5s5-2.24 5-5zm-18.775-97.358c-22.63 10.905-40.886 29.466-51.399 52.317l47.316 19.292c5.282-10.4 13.658-18.967 23.911-24.482zm91.815-.817-19.291 47.317c10.398 5.281 18.964 13.655 24.482 23.911l47.126-19.829c-10.906-22.633-29.471-40.891-52.317-51.399zm-9.27-3.751c-11.195-3.934-23.235-6.074-35.77-6.074-13.209 0-25.867 2.376-37.574 6.726l19.817 47.099c5.592-1.834 11.56-2.825 17.757-2.825 5.726 0 11.255.846 16.468 2.419z" fill="#360073"/></svg>