<svg clip-rule="evenodd" fill-rule="evenodd" stroke-linejoin="round" stroke-miterlimit="2" viewBox="0 0 256 256" xmlns="http://www.w3.org/2000/svg"><path d="m0 0h256v256h-256z" fill="none"/><path d="m33.497 90.384 90.835-84.764c1.911-1.784 4.875-1.793 6.798-.021l92.016 84.764c1.13 1.04 1.671 2.481 1.606 3.904.023.19.034.383.034.579v151.827c0 2.761-2.239 5-5 5h-184.032c-2.761 0-5-2.239-5-5v-151.827c0-1.949 1.115-3.638 2.743-4.462zm50.37 9.462h-43.113v141.827h43.113zm77.806 141.827v-141.827h-67.806v141.827zm10-141.827v141.827h43.113v-141.827zm-29.195-70.198 27.306 60.198h38.042zm-93.748 60.198h37.026l27.175-59.909zm48.006 0h62.067l-31.033-68.415z" fill="#360073"/></svg>