<svg clip-rule="evenodd" fill-rule="evenodd" stroke-linejoin="round" stroke-miterlimit="2" viewBox="0 0 256 256" xmlns="http://www.w3.org/2000/svg"><path d="m0 0h256v256h-256z" fill="none"/><path d="m128 247.5c65.807 0 119.5-53.693 119.5-119.5 0-66.134-53.366-119.5-119.5-119.5s-119.5 53.366-119.5 119.5 53.366 119.5 119.5 119.5zm0-227.26c59.509 0 107.76 48.251 107.76 107.76s-48.251 107.76-107.76 107.76-107.76-48.251-107.76-107.76 48.251-107.76 107.76-107.76zm73.692 91.732c-.759-3.121 1.187-6.239 4.308-7.019 3.133-.783 6.273 1.165 7.056 4.299.02.079.03.161.03.243v.222c1.299 6.2 1.948 12.079 1.948 18.283 0 3.131-2.739 5.87-5.87 5.87-3.13 0-5.869-2.739-5.869-5.87 0-5.449-.642-10.899-1.603-16.028zm-8.111-26.151c1.106 0 2.219-.343 3.694-1.08.069-.034.133-.077.193-.126 2.332-1.944 3.091-5.446 1.147-8.167-16.429-22.344-42.703-35.482-70.29-35.482-3.131 0-5.87 2.739-5.87 5.87 0 3.13 2.739 5.869 5.87 5.869 23.709 0 46.456 11.535 60.554 30.759 1.18 1.574 2.745 2.357 4.702 2.357z" fill="#360073" fill-rule="nonzero"/></svg>