<svg clip-rule="evenodd" fill-rule="evenodd" stroke-linejoin="round" stroke-miterlimit="2" viewBox="0 0 256 256" xmlns="http://www.w3.org/2000/svg"><path d="m0 0h256v256h-256z" fill="none"/><path d="m240.427 111.466c.051-.397.051-.798 0-1.195l-20.208-54.324c-.459-1.303-1.39-2.389-2.608-3.042l-42.698-21.73c-.79-.585-1.735-.926-2.717-.977h-55.084c-1.44-.018-2.822.574-3.803 1.629l-43.459 42.916h-1.521c-1.197-.113-2.402.113-3.477.652l-56.388 32.594c-1.669.964-2.705 2.746-2.716 4.672v72.143c.014 1.572.684 3.07 1.847 4.128l40.743 35.528c.998.854 2.272 1.317 3.585 1.304h43.459c1.171-.029 2.306-.408 3.26-1.087l14.993-10.864c.312.347.679.641 1.087.869l21.729 10.864c.773.237 1.587.311 2.39.218h65.189c1.313.013 2.588-.45 3.586-1.304l40.742-35.528c1.393-1.217 2.087-3.055 1.848-4.889zm-146.892 103.433h-39.548l-37.374-32.594v-66.493l52.477-30.204 41.177 5.867 23.142 54.324v39.656zm108.648 0h-62.038l-17.057-8.583 19.013-14.233c1.395-1.001 2.209-2.629 2.173-4.346v-43.459c.152-.716.152-1.457 0-2.173l-25.315-57.583c-.717-1.708-2.292-2.91-4.129-3.151l-31.073-4.455 35.637-35.854h52.042l39.113 20.209 19.231 52.26 9.235 68.774zm-147.218-108.105-21.729 10.865c-1.845.932-3.021 2.822-3.042 4.889v21.73c0 2.98 2.452 5.432 5.432 5.432s5.432-2.452 5.432-5.432v-18.362l18.688-8.8c1.864-.912 3.052-2.814 3.052-4.889 0-2.986-2.457-5.442-5.442-5.442-.829 0-1.646.189-2.391.553zm149.065-29.443c-.461-1.363-1.436-2.494-2.716-3.151l-21.73-10.865c-.744-.364-1.561-.553-2.39-.553-2.985 0-5.442 2.457-5.442 5.442 0 2.076 1.187 3.978 3.052 4.89l19.665 9.778 9.561 30.53c.71 2.209 2.787 3.711 5.107 3.694.574.104 1.163.104 1.738 0 2.186-.712 3.675-2.763 3.675-5.062 0-.608-.104-1.211-.307-1.783z" fill="#360073" fill-rule="nonzero"/></svg>