<svg clip-rule="evenodd" fill-rule="evenodd" stroke-linejoin="round" stroke-miterlimit="2" viewBox="0 0 256 256" xmlns="http://www.w3.org/2000/svg"><path d="m0 0h256v256h-256z" fill="none"/><path d="m212.078 48.952v-1.797l-.359-.718v-.719l-.359-.359h-.719l-36.29-36.29-.719-.36h-.718l-.719-.359h-89.827l-.719.359h-.719v.719l-36.649 36.649v.719l-.359.719v161.689l.359.719v.718l.359.719.36-.719 36.649 36.65h.359l.36.359h90.546l.359-.359h.359l37.009-37.009.359-.719v-.718l.36-.719v-1.797zm-132.944 139.771-25.152 10.42v-142.286l25.152 10.42zm22.636 12.935-11.857-11.857v-123.602l11.857-11.857h52.1l11.857 11.857v123.962l-11.857 11.857h-52.1zm74.377-134.381 25.152-10.42v141.927l-25.152-10.42zm-4.311-9.702-9.702-9.701 10.42-25.152 24.433 24.433zm-8.983-39.164-10.42 25.151h-49.585l-10.42-25.151zm-80.126 3.952 10.42 25.152-9.701 9.701-25.152-10.42zm.359 176.421 9.702 9.701-10.42 25.152-24.433-24.433zm9.342 38.805 10.42-25.151h49.226l10.42 25.151zm80.126-3.952-10.42-25.152 9.702-9.701 25.151 10.42z" fill="#360073" fill-rule="nonzero"/></svg>