<svg clip-rule="evenodd" fill-rule="evenodd" stroke-linejoin="round" stroke-miterlimit="2" viewBox="0 0 256 256" xmlns="http://www.w3.org/2000/svg"><path d="m0 0h256v256h-256z" fill="none"/><path d="m66.159 229.833-.065-.052s-50.396-41.998-50.396-41.998l-9.479-7.899c-.456-.38-.719-.943-.719-1.537v-100.694c-.001-.594.263-1.157.719-1.537l60.619-50.516c.36-.299.813-.463 1.281-.463h119.762c.469 0 .922.164 1.282.464 0 0 .744.622.743.621l58.911 49.091.91.761c.471.365.774.937.774 1.579v100.694c0 .593-.263 1.155-.718 1.535l-.961.803-58.913 49.096-.749.62c-.36.299-.812.462-1.279.462h-119.76c-.467 0-.919-.163-1.278-.462zm15.849-8.325h91.979l-45.988-38.327zm58.911-39.739 45.99 38.327 45.991-38.327zm-71.831 38.327 45.988-38.327h-91.979l15.896 13.248zm71.833-47.682h91.976l-45.988-38.324zm-117.823 0h91.98l-45.99-38.324zm53.297-44.414 46.926 39.104v-78.211zm56.281 39.104 46.927-39.104-46.927-39.107zm61.54-39.104 46.926 39.104v-78.208zm-179.361 39.104 46.926-39.104-46.926-39.107zm126.064-83.518 45.99 38.324 45.993-38.324zm-117.821 0 45.99 38.324 45.99-38.324zm117.821-9.355h91.981l-45.991-38.327zm-117.819-.003h91.978l-45.99-38.324zm58.908-39.736 45.991 38.327 45.99-38.327z" fill="#360073" fill-rule="nonzero"/></svg>